<?xml version="1.0" encoding="iso-8859-1"?>
<!-- Uploaded to: SVG Repo, www.svgrepo.com, Generator: SVG Repo Mixer Tools -->
<svg height="800px" width="800px" version="1.1" id="Layer_1" xmlns="http://www.w3.org/2000/svg" xmlns:xlink="http://www.w3.org/1999/xlink" 
	 viewBox="0 0 503.973 503.973" xml:space="preserve">
<path style="fill:#72B1B7;" d="M455.2,344.686l48-152.8c1.6-6.4,0.8-12.8-3.2-18.4s-10.4-8.8-16.8-8.8H20.8
	c-6.4,0-12.8,3.2-16.8,8.8s-4.8,12-3.2,18.4l48,152.8c0,3.2,0.8,5.6,2.4,8.8l20.8,66.4c2.4,8.8,10.4,14.4,20,14.4h320
	c8.8,0,16.8-5.6,20-14.4l20.8-66.4L455.2,344.686z M73.6,284.686h356.8l-12,37.6H84.8L73.6,284.686z M455.2,206.286l-11.2,36.8H60.8
	l-11.2-36.8H455.2z M107.2,399.886l-8.8-36.8h308l-8.8,36.8H107.2z"/>
<path style="fill:#5D9BA5;" d="M500,179.086c-4-5.6-10.4-8.8-16.8-8.8H20.8c-6.4,0-12.8,3.2-16.8,8.8s-4.8,12-3.2,18.4l48,152.8
	c0,3.2,0.8,5.6,2.4,8.8l20.8,66.4c0.8,1.6,0.8,3.2,1.6,4c-2.4,2.4-4,5.6-4,8.8c0,7.2,5.6,12.8,12.8,12.8H420
	c7.2,0,12.8-5.6,12.8-12.8c0-3.2-1.6-6.4-4-8.8c0.8-1.6,1.6-2.4,1.6-4l20.8-66.4l2.4-8.8l48-152.8
	C504.8,191.886,504,184.686,500,179.086z M98.4,369.486h308l-8.8,36.8H107.2L98.4,369.486z M419.2,327.886H84.8l-12-37.6h356.8
	L419.2,327.886z M443.2,249.486H60.8l-11.2-36.8h405.6L443.2,249.486z"/>
<path style="fill:#65A5A8;" d="M153.6,187.086c-7.2,7.2-19.2,7.2-26.4,0l-16.8-16.8c-7.2-7.2-7.2-19.2,0-26.4l84.8-86.4
	c7.2-7.2,19.2-7.2,26.4,0l16.8,16.8c7.2,7.2,7.2,19.2,0,26.4L153.6,187.086z"/>
<path style="fill:#72B1B7;" d="M132,165.486l85.6-85.6c6.4-6.4,7.2-16.8,1.6-24c-7.2-5.6-17.6-4.8-24,1.6l-85.6,85.6
	c-6.4,6.4-7.2,16.8-1.6,24C115.2,172.686,125.6,172.686,132,165.486z"/>
<path style="fill:#579B9B;" d="M156.8,139.886c9.6,9.6-12,47.2-21.6,57.6c-9.6,9.6-25.6,9.6-36,0c-9.6-9.6-9.6-25.6,0-36
	C109.6,151.886,147.2,130.286,156.8,139.886z"/>
<g>
	<path style="opacity:0.2;fill:#83C9CC;enable-background:new    ;" d="M155.2,179.086c-1.6,23.2-24,32.8-37.6,29.6
		s-25.6-16-25.6-29.6s11.2-25.6,25.6-25.6C131.2,154.286,156,165.486,155.2,179.086z"/>
	<circle style="fill:#83C9CC;" cx="117.6" cy="179.086" r="25.6"/>
</g>
<g>
	<path style="fill:#72B1B7;" d="M135.2,161.486c9.6,9.6,9.6,25.6,0,36c-9.6,9.6-25.6,9.6-36,0"/>
	<path style="fill:#72B1B7;" d="M350.4,187.086c7.2,7.2,19.2,7.2,26.4,0l16.8-16.8c7.2-7.2,7.2-19.2,0-26.4l-84.8-86.4
		c-7.2-7.2-19.2-7.2-26.4,0l-16.8,16.8c-7.2,7.2-7.2,19.2,0,26.4L350.4,187.086z"/>
</g>
<path style="fill:#65A5A8;" d="M372,165.486l-85.6-85.6c-6.4-6.4-7.2-16.8-1.6-24c7.2-5.6,17.6-4.8,24,1.6l85.6,85.6
	c6.4,6.4,7.2,16.8,1.6,24C388.8,172.686,378.4,172.686,372,165.486z"/>
<path style="fill:#579B9B;" d="M347.2,139.886c-9.6,9.6,12,47.2,21.6,57.6c9.6,9.6,25.6,9.6,36,0c9.6-9.6,9.6-25.6,0-36
	C394.4,151.886,356.8,130.286,347.2,139.886z"/>
<path style="opacity:0.2;fill:#83C9CC;enable-background:new    ;" d="M348.8,179.086c1.6,23.2,24,32.8,37.6,29.6s25.6-16,25.6-29.6
	s-11.2-25.6-25.6-25.6C372.8,154.286,348,165.486,348.8,179.086z"/>
<circle style="fill:#72B1B7;" cx="386.4" cy="179.086" r="25.6"/>
<path style="fill:#83C9CC;" d="M368.8,161.486c-9.6,9.6-9.6,25.6,0,36c9.6,9.6,25.6,9.6,36,0"/>
<circle style="fill:#176EA3;" cx="108.8" cy="343.086" r="108.8"/>
<path style="fill:#18456D;" d="M108.8,234.286c60,0,108.8,48.8,108.8,108.8s-48.8,108.8-108.8,108.8"/>
<path style="fill:#1B5A89;" d="M32,265.486c42.4-42.4,111.2-42.4,154.4,0c42.4,42.4,42.4,111.2,0,154.4"/>
<g>
	<path style="fill:#EEFFFF;" d="M108,395.086c-8.8,0-16-7.2-16-16v-72.8c0-8.8,7.2-16,16-16s16,7.2,16,16v72.8
		C123.2,387.886,116.8,395.086,108,395.086z"/>
	<path style="fill:#EEFFFF;" d="M144,358.286H71.2c-8.8,0-16-7.2-16-16s7.2-16,16-16H144c8.8,0,16,7.2,16,16
		C160,351.886,152.8,358.286,144,358.286z"/>
</g>
</svg>